# xmcd CD database file
#
# Track frame offsets:
#	150
#	7586
#	28929
#	30852
#	40112
#	53049
#	61490
#	70842
#	79006
#	89598
#	100134
#	103426
#	113740
#	126383
#	136044
#	145209
#	152780
#	164917
#	167801
#	178927
#	193561
#	202348
#
# Disc length: 2784 seconds
#
# Revision: 1
# Processed by: cddbd v1.4PL0 Copyright (c) Steve Scherf et al.
# Submitted via: CDex 1.51
#
DISCID=380ade16
DTITLE=Jeff Wahl - Guitarscapes
DYEAR=1999
DGENRE=Jazz
TTITLE0=Mockingbird
TTITLE1=Guinevere
TTITLE2=Mist
TTITLE3=Green turtleneck
TTITLE4=Reality check
TTITLE5=She misses the ocean
TTITLE6=India
TTITLE7=Oh yeah
TTITLE8=Spanish ballad
TTITLE9=Groove
TTITLE10=Waterfall
TTITLE11=Horsetooth soliloquoy
TTITLE12=Discovery
TTITLE13=Allegro in D minor
TTITLE14=Run
TTITLE15=Forever
TTITLE16=Victory
TTITLE17=Repetition
TTITLE18=Train
TTITLE19=Night
TTITLE20=Get it right
TTITLE21=Butterfly
EXTD=YEAR: 1999
EXTT0=
EXTT1=
EXTT2=
EXTT3=
EXTT4=
EXTT5=
EXTT6=
EXTT7=
EXTT8=
EXTT9=
EXTT10=
EXTT11=
EXTT12=
EXTT13=
EXTT14=
EXTT15=
EXTT16=
EXTT17=
EXTT18=
EXTT19=
EXTT20=
EXTT21=
PLAYORDER=
